<svg xmlns="http://www.w3.org/2000/svg" xml:space="preserve" width="250" height="250" shape-rendering="geometricPrecision" text-rendering="geometricPrecision" image-rendering="optimizeQuality" fill-rule="evenodd" clip-rule="evenodd" viewBox="0 0 250 250"><g fill="#2b2a29" fill-rule="nonzero"><path d="M125 250C56 250 0 194 0 125S56 0 125 0h6c9 0 17 1 20 8 4 8-1 14-6 22l-13 18c-3 4-8 5-12 2s-5-8-2-12l13-18c1-1 1-2 2-2h-8C66 18 17 66 17 126c0 59 48 108 108 108 59 0 108-48 108-108 0-34-16-66-43-86-4-3-5-8-2-12s8-5 12-2c31 23 50 61 50 100 0 69-56 125-125 125z"/><path d="M89 172c-3 0-5-1-7-3s-3-4-3-7v-60c0-2-1-3-3-2l-4 2c-1 0-1 0-2 1h-2c-3 0-5-1-7-3s-3-4-3-7q0-6 6-9l17-7c2-1 4-1 5-1 3 0 6 1 8 3s3 5 3 8v74c0 3-1 5-3 7s-4 3-7 3zm35-48c0-15 3-26 8-34 6-8 14-12 25-12s20 4 26 12 9 20 9 34c0 15-3 26-9 35s-14 13-26 13c-11 0-20-4-25-13-6-9-8-20-8-35m20 0c0 10 1 17 3 22s6 7 11 7 9-3 11-8 3-13 3-22q0-15-3-21c-2-4-6-6-11-6s-9 2-11 7q-3 6-3 21"/></g></svg>
