<svg xmlns="http://www.w3.org/2000/svg" xml:space="preserve" width="250" height="250" shape-rendering="geometricPrecision" text-rendering="geometricPrecision" image-rendering="optimizeQuality" fill-rule="evenodd" clip-rule="evenodd" viewBox="0 0 250 250"><path d="M196 0h2c10 0 18 0 24 1 7 1 14 3 19 9 5 5 8 12 9 19s1 15 1 24v144c0 10 0 18-1 24-1 7-3 14-9 19-5 5-12 8-19 9s-15 1-24 1h-1c-10 0-18 0-24-1-7-1-14-3-19-9-5-5-8-12-9-19s-1-15-1-24V53c0-9 0-18 1-24 1-7 3-14 9-19 5-5 12-8 19-9s15-1 24-1zM53 0h2c9 0 18 0 24 1 7 1 14 3 19 9 5 5 8 12 9 19s1 15 1 24v144c0 10 0 18-1 24-1 7-3 14-9 19-5 5-12 8-19 9s-15 1-24 1h-1c-9 0-18 0-24-1-7-1-14-3-19-9-5-5-8-12-9-19s-1-15-1-24V53c0-9 0-18 1-24 1-7 3-14 9-19 5-5 12-8 19-9s15-1 24-1z" fill-rule="nonzero"/></svg>
