<svg xmlns="http://www.w3.org/2000/svg" xml:space="preserve" width="250" height="266" shape-rendering="geometricPrecision" text-rendering="geometricPrecision" image-rendering="optimizeQuality" fill-rule="evenodd" clip-rule="evenodd" viewBox="0 0 250 266"><path fill-rule="nonzero" d="M156 42c26 15 47 27 62 38s26 22 30 37q4.5 16.5 0 33c-4 15-15 26-30 37s-35 23-62 37c-25 14-47 27-63 34s-31 11-46 6c-11-3-20-9-28-17-11-11-15-26-17-43-2-18-2-41-2-70v-2c0-29 0-53 2-70 2-18 6-33 17-43 8-8 18-14 28-17 15-4 30-1 46 6s38 19 63 34"/></svg>
